<svg width="12" height="12" viewBox="0 0 12 12" fill="none" xmlns="http://www.w3.org/2000/svg">
<path d="M11.9573 4.32802L11.4817 4.48231C11.5249 4.61564 11.4904 4.75481 11.3906 4.85203L11.3906 4.85208L9.2883 6.90148L9.28811 6.90166C9.0815 7.10329 8.98584 7.39407 9.03495 7.68041C9.03495 7.68042 9.03495 7.68043 9.03495 7.68044L9.53113 10.5739L9.53126 10.5746C9.55036 10.6851 9.52279 10.7835 9.45437 10.8645L9.45386 10.8651C9.38189 10.9505 9.2803 10.9967 9.17597 10.9967C9.11989 10.9967 9.06486 10.9837 9.00864 10.9541L9.00834 10.9539L6.40965 9.58767L6.40802 9.58682C6.15597 9.45549 5.8462 9.45365 5.59108 9.58742L5.59058 9.58768L2.99222 10.9539C2.99219 10.9539 2.99216 10.9539 2.99213 10.9539C2.84553 11.0309 2.65361 10.9925 2.54656 10.8653L2.5461 10.8648C2.47746 10.7834 2.4499 10.6852 2.46901 10.5745L2.46911 10.5739L2.96502 7.6806C2.96504 7.68052 2.96505 7.68045 2.96506 7.68037C3.01416 7.39428 2.91849 7.10328 2.71189 6.90166L2.71168 6.90146L0.609422 4.8523L0.60939 4.85227C0.509687 4.75511 0.475112 4.61605 0.518241 4.4828C0.561577 4.34963 0.671391 4.25727 0.809357 4.23727L0.809523 4.23725L3.71506 3.81507L3.71521 3.81505C4.00094 3.77343 4.24928 3.59417 4.37772 3.33368C4.37777 3.33356 4.37783 3.33345 4.37789 3.33333L5.67694 0.700873L5.67701 0.700736C5.73855 0.575922 5.86058 0.5 6.00012 0.5C6.13998 0.5 6.26196 0.575993 6.32347 0.700736L6.32353 0.700856L7.62235 3.33309C7.62241 3.3332 7.62246 3.33331 7.62252 3.33342C7.75075 3.59353 7.99862 3.77313 8.28479 3.81481L8.28494 3.81483L11.1903 4.23699C11.329 4.25717 11.4385 4.34957 11.4818 4.48264L11.9573 4.32802ZM11.9573 4.32802C12.0592 4.64208 11.9758 4.97992 11.7396 5.21011M11.9573 4.32802L11.7396 5.21011M11.7396 5.21011L9.63732 7.25951C9.5477 7.34697 9.50661 7.47264 9.52775 7.59591L10.0239 10.4894C10.0679 10.7436 10.0014 10.9919 9.83628 11.1872C9.67072 11.3838 9.42996 11.4967 9.17597 11.4967C9.03685 11.4967 8.90205 11.4631 8.77566 11.3965L6.17697 10.0302C6.0686 9.97377 5.93188 9.97329 5.82327 10.0302L3.22482 11.3965C2.86728 11.5844 2.42011 11.4917 2.16396 11.1872C1.99913 10.9919 1.93233 10.7441 1.9763 10.4894L11.7396 5.21011Z" fill="#9D2929" stroke="black"/>
</svg>
